<?xml version="1.0" standalone="no"?>
<!DOCTYPE svg PUBLIC "-//W3C//DTD SVG 20010904//EN"
 "http://www.w3.org/TR/2001/REC-SVG-20010904/DTD/svg10.dtd">
<svg version="1.0" xmlns="http://www.w3.org/2000/svg"
 width="1173.000000pt" height="1280.000000pt" viewBox="0 0 1173.000000 1280.000000"
 preserveAspectRatio="xMidYMid meet">
<g transform="translate(0.000000,1280.000000) scale(0.100000,-0.100000)"
fill="#000000" stroke="none">
<path d="M5280 12010 c0 -698 -2 -790 -15 -790 -8 0 -284 155 -612 345 -467
270 -600 342 -609 332 -16 -18 -594 -1023 -594 -1034 0 -5 408 -245 907 -533
500 -288 911 -529 915 -534 4 -6 8 -536 8 -1178 0 -1048 -2 -1168 -15 -1168
-21 0 -2006 1146 -2023 1167 -9 13 -12 243 -12 1070 l0 1053 -605 0 -605 0 0
-692 c0 -383 -4 -699 -9 -707 -11 -17 52 -51 -761 418 -573 331 -626 360 -638
344 -33 -46 -593 -1025 -590 -1033 2 -5 311 -187 687 -404 376 -218 688 -399
692 -403 5 -5 5 -13 1 -19 -4 -5 -267 -160 -585 -344 -434 -250 -577 -337
-572 -348 19 -50 592 -1031 603 -1032 7 0 410 230 897 511 518 299 892 509
904 507 10 -2 463 -259 1005 -573 648 -374 986 -574 984 -584 -4 -20 -1969
-1153 -1991 -1147 -10 2 -421 237 -913 521 -493 285 -902 518 -910 519 -17 1
-617 -1035 -606 -1046 4 -4 276 -162 603 -351 326 -189 594 -349 594 -356 0
-7 -306 -190 -680 -406 -373 -215 -681 -397 -683 -403 -5 -15 590 -1042 604
-1042 6 0 319 178 695 395 376 217 690 395 696 395 10 0 13 -145 15 -677 l3
-678 607 -3 608 -2 2 1041 3 1041 987 570 c543 313 992 567 998 563 7 -4 10
-368 10 -1145 l0 -1139 -27 -19 c-16 -10 -426 -248 -912 -528 -486 -280 -885
-514 -888 -520 -5 -14 589 -1044 603 -1044 6 0 279 155 608 345 329 190 602
343 607 340 5 -4 9 -330 9 -806 l0 -799 610 0 610 0 0 809 c0 446 4 812 9 815
4 3 270 -146 591 -331 489 -282 584 -333 595 -322 22 23 588 1010 589 1027 1
11 -261 168 -865 517 -476 275 -877 508 -892 518 l-27 17 0 1130 c0 764 3
1130 10 1130 10 0 1845 -1056 1923 -1106 l37 -24 0 -1035 0 -1035 610 0 610 0
0 674 c0 371 4 677 9 680 4 3 278 -150 607 -340 329 -191 637 -368 684 -395
66 -38 87 -46 96 -36 23 24 596 1027 592 1037 -1 5 -300 181 -663 390 -363
210 -666 387 -673 394 -10 10 -9 15 5 28 10 8 277 164 593 347 316 182 581
335 589 340 10 7 -55 127 -285 526 -165 285 -305 520 -311 522 -7 3 -415 -227
-905 -510 -491 -283 -903 -520 -914 -525 -19 -10 -145 60 -1005 557 -541 312
-985 574 -987 582 -2 10 314 198 989 588 833 480 996 571 1013 563 12 -5 416
-238 900 -517 483 -279 882 -503 886 -498 5 4 142 239 305 522 245 424 294
516 283 526 -7 7 -260 156 -563 330 -657 379 -599 343 -585 360 6 7 314 188
685 401 522 300 674 393 671 406 -5 20 -573 1008 -591 1026 -10 12 -127 -52
-676 -369 -364 -211 -672 -383 -683 -383 l-21 -1 -3 698 -2 697 -605 0 -605 0
0 -1052 c0 -579 -4 -1058 -8 -1065 -10 -15 -1981 -1153 -1998 -1153 -12 0 -14
187 -14 1159 l0 1159 893 515 c504 292 892 522 892 530 0 22 -589 1037 -602
1037 -7 0 -269 -148 -583 -330 -315 -181 -578 -330 -586 -330 -12 0 -14 114
-14 800 l0 800 -610 0 -610 0 0 -790z"/>
</g>
</svg>
